# xmcd CD database file
#
# Track frame offsets:
#	150
#	28707
#	60012
#	87975
#	114105
#	161870
#	192075
#	217927
#	244027
#	279492
#	300902
#
# Disc length: 4292 seconds
#
# Revision: 0
# Processed by: cddbd v1.5.2PL0 Copyright (c) Steve Scherf et al.
# Submitted via: CDex 1.51
#
DISCID=8010c20b
DTITLE=Mattias Svensson Trio - Head Up High
DYEAR=2009
DGENRE=Jazz
TTITLE0=Head Up High
TTITLE1=It Could Happen To You
TTITLE2=Lullaby Of The Leaves
TTITLE3=Putte's Waltz
TTITLE4=Philosophical About It
TTITLE5=When It's Time To Go
TTITLE6=Edelweiss
TTITLE7=Atlantis Overdrive
TTITLE8=Bye Bye Blackbird
TTITLE9=Volare
TTITLE10=Theme From Beethoven's 9th Symphony
EXTD=YEAR: 2009
EXTT0=
EXTT1=
EXTT2=
EXTT3=
EXTT4=
EXTT5=
EXTT6=
EXTT7=
EXTT8=
EXTT9=
EXTT10=
PLAYORDER=
